<svg xmlns="http://www.w3.org/2000/svg" width="320" height="320" viewBox="0 0 24 24">
  <g fill="none">
    <!-- Background rectangle -->
    <path
      fill-rule="evenodd"
      clip-rule="evenodd"
      d="M3 6a3 3 0 0 1 3-3h12a3 3 0 0 1 3 3v12a3 3 0 0 1-3 3H6a3 3 0 0 1-3-3V6z"
      fill="black"
    />
    <!-- Arrow filled with white color -->
    <path
      fill-rule="evenodd"
      clip-rule="evenodd"
      d="M13 5a1 1 0 1 0 0 2h2.586l-4.293 4.293a1 1 0 0 0 1.414 1.414L17 8.414V11a1 1 0 1 0 2 0V6a1 1 0 0 0-1-1h-5z"
      fill="white"
    />
  </g>
</svg>
